<svg xmlns="http://www.w3.org/2000/svg" width="256" height="256" viewBox="0 0 100 100"><rect width="100" height="100" rx="50" fill="#4874bf"></rect><path fill="#ffffff" d="M73.32 79.60L73.32 79.60Q72.74 79.79 71.76 80.04Q70.78 80.28 69.60 80.28L69.60 80.28Q65.29 80.28 65.29 76.66L65.29 76.66L65.29 52.94L34.71 52.94L34.71 79.60Q34.12 79.79 33.14 80.04Q32.16 80.28 30.99 80.28L30.99 80.28Q26.68 80.28 26.68 76.66L26.68 76.66L26.68 20.40Q27.17 20.21 28.20 19.96Q29.22 19.72 30.40 19.72L30.40 19.72Q34.71 19.72 34.71 23.34L34.71 23.34L34.71 46.28L65.29 46.28L65.29 20.40Q65.78 20.21 66.81 19.96Q67.84 19.72 69.01 19.72L69.01 19.72Q73.32 19.72 73.32 23.34L73.32 23.34L73.32 79.60Z"></path></svg>